PathFileType	4	(X/Y/Z)	OpenSim_Sub10_CSBaseline_Magnet.trc
DataRate	CameraRate	NumFrames	NumMarkers	Units	OrigDataRate	OrigDataStartFrame	OrigNumFrames
100	100	20	8	m	100	1139	9111
Frame#	Time	torso_imu_offset_imu	pelvis_imu_offset_imu	tibia_r_imu_offset_imu	femur_r_imu_offset_imu	tibia_l_imu_offset_imu	femur_l_imu_offset_imu	toes_r_imu_offset_imu	toes_l_imu_offset_imu
				X1	Y1	Z1	X2	Y2	Z2	X3	Y3	Z3	X4	Y4	Z4	X5	Y5	Z5	X6	Y6	Z6	X7	Y7	Z7	X8		Y8	Z8	

1139	11.38000000	-0.94833544	-0.10995757	0.06842049	-0.66857848	0.14300468	-0.65522075	-0.74180980	-0.48710261	-0.14921712	-0.82022746	-0.21737533	0.02897353	-0.36336332	0.70109234	0.27697114	-0.60742450	0.27604104	0.27866102	-0.64373622	-0.24345933	-0.36258400	-0.83033129	-0.19691974	0.00985261
1140	11.39000000	-0.94607709	-0.11023832	0.06663833	-0.66605527	0.13657647	-0.65897892	-0.73595103	-0.49111698	-0.14880847	-0.81354428	-0.22005707	0.03575536	-0.34512540	0.71204893	0.27434614	-0.61581562	0.26822351	0.26615651	-0.64428570	-0.24306200	-0.36657736	-0.82095943	-0.19681575	0.05392736
1141	11.40000000	-0.94669620	-0.10972698	0.06652632	-0.66603779	0.13416923	-0.65927999	-0.73373989	-0.49818072	-0.14878291	-0.80931187	-0.23941642	0.04059130	-0.31903121	0.71888360	0.27621371	-0.61950713	0.25604919	0.25107574	-0.65034354	-0.23923165	-0.36277036	-0.81756806	-0.18463097	0.08968712
1142	11.41000000	-0.95070427	-0.10598871	0.06423876	-0.66574210	0.12591636	-0.66334989	-0.73386906	-0.50789234	-0.15092775	-0.80383763	-0.25611128	0.04373652	-0.30592215	0.73013943	0.28019587	-0.62984693	0.25363324	0.24535459	-0.65026955	-0.24150040	-0.36908520	-0.81819935	-0.17316113	0.13357586
1143	11.42000000	-0.94554607	-0.11059867	0.06484067	-0.66579819	0.12148569	-0.66085970	-0.73573319	-0.50508726	-0.15573442	-0.79079774	-0.27618341	0.04905943	-0.27851760	0.73824787	0.28373237	-0.65081483	0.23954391	0.24009062	-0.65399834	-0.23930129	-0.36412446	-0.81211401	-0.17250349	0.18236693
1144	11.43000000	-0.94254455	-0.11182621	0.06634828	-0.66536491	0.11370673	-0.66584306	-0.73111962	-0.50558844	-0.16218550	-0.78690729	-0.28870426	0.04630075	-0.25706084	0.74013970	0.28808213	-0.65582811	0.22625865	0.22398896	-0.64789133	-0.23940638	-0.36300485	-0.79292874	-0.15480111	0.21981864
1145	11.44000000	-0.94856170	-0.11044727	0.05443486	-0.66316417	0.11544309	-0.67237870	-0.72711317	-0.50770455	-0.16433055	-0.78403910	-0.30462811	0.04030299	-0.23865262	0.74245284	0.29396727	-0.66264642	0.21161991	0.21134520	-0.65519451	-0.23911698	-0.36625491	-0.78678050	-0.14869714	0.25889089
1146	11.45000000	-0.94658666	-0.11395735	0.04965987	-0.66323794	0.10477800	-0.67187300	-0.72740070	-0.50999969	-0.17105452	-0.77992073	-0.30814190	0.03864575	-0.21143592	0.74449441	0.29427884	-0.67313460	0.20248321	0.20590075	-0.66091507	-0.23284954	-0.35845190	-0.77639686	-0.13286869	0.29997841
1147	11.46000000	-0.95317927	-0.10781730	0.05587730	-0.66517151	0.10331398	-0.67447700	-0.72672562	-0.51643323	-0.17006324	-0.77509802	-0.31669085	0.03847708	-0.19032948	0.74720431	0.30719740	-0.67927668	0.18463745	0.20503323	-0.66038555	-0.22880732	-0.36577750	-0.77268805	-0.11755116	0.31644935
1148	11.47000000	-0.95025713	-0.10977243	0.05327157	-0.66488407	0.09864730	-0.67596588	-0.72234413	-0.52037036	-0.16516736	-0.76649019	-0.32559159	0.03141931	-0.17436343	0.75625737	0.30489342	-0.68713826	0.16900983	0.19228852	-0.65882000	-0.22492357	-0.36829109	-0.76349838	-0.10547195	0.33488434
1149	11.48000000	-0.94890487	-0.10370677	0.05603800	-0.66260641	0.09743538	-0.67444368	-0.72304172	-0.52469461	-0.16404229	-0.76464297	-0.34226174	0.02883354	-0.15300279	0.76266983	0.29509117	-0.69160512	0.14997360	0.19459435	-0.66082164	-0.22543552	-0.35876713	-0.75284487	-0.10005566	0.34672062
1150	11.49000000	-0.95052108	-0.10549654	0.05950110	-0.66042386	0.09895197	-0.68365233	-0.72660803	-0.52835511	-0.17208819	-0.76135375	-0.35180493	0.03866508	-0.14683429	0.77008921	0.28328529	-0.70645569	0.13600270	0.18336901	-0.65870834	-0.22488248	-0.36716966	-0.75316914	-0.07768939	0.34414098
1151	11.50000000	-0.94942716	-0.09710189	0.05256369	-0.65792655	0.08999320	-0.68346533	-0.72153316	-0.52618799	-0.16515761	-0.75069349	-0.36052354	0.04343013	-0.13058027	0.78246903	0.26606882	-0.70947918	0.11002352	0.17890576	-0.66101228	-0.22320906	-0.36265447	-0.76429187	-0.06522505	0.34341054
1152	11.51000000	-0.95529082	-0.09971042	0.05602504	-0.65854853	0.08671333	-0.69232536	-0.71633265	-0.52912056	-0.16524625	-0.74632626	-0.37284246	0.04817813	-0.11946573	0.78265041	0.24015853	-0.71514524	0.09519141	0.16579097	-0.66097614	-0.22549264	-0.36750919	-0.76527771	-0.05486594	0.33142966
1153	11.52000000	-0.95120779	-0.09426526	0.06153981	-0.66163678	0.08619274	-0.68714493	-0.72224988	-0.53684782	-0.16346276	-0.73990608	-0.38069385	0.05098019	-0.12850680	0.79178915	0.20663237	-0.71505538	0.07583937	0.16414319	-0.66301074	-0.22527078	-0.36885619	-0.77850038	-0.05291552	0.31486660
1154	11.53000000	-0.95576842	-0.08669997	0.05714255	-0.65124002	0.08042960	-0.69007498	-0.71771481	-0.53457110	-0.17190353	-0.73570942	-0.38883665	0.05565304	-0.12475459	0.79604548	0.18471634	-0.72556357	0.06251934	0.15760989	-0.66260722	-0.22547626	-0.36479717	-0.78117934	-0.04532241	0.29024151
1155	11.54000000	-0.95299174	-0.08906192	0.06675965	-0.65804236	0.07992418	-0.69400730	-0.71802399	-0.53689529	-0.16776032	-0.73112105	-0.39545119	0.05894313	-0.13927229	0.80041060	0.16506224	-0.72447936	0.04299806	0.15537199	-0.66102099	-0.22487203	-0.36491924	-0.79512586	-0.03450491	0.27464114
1156	11.55000000	-0.95148909	-0.08622848	0.07025493	-0.65500985	0.06932613	-0.69150360	-0.71797384	-0.53906956	-0.17681228	-0.72438488	-0.40554103	0.06789035	-0.14783245	0.80231978	0.15227391	-0.73135581	0.03027297	0.14344052	-0.66298172	-0.22158315	-0.36287203	-0.79947606	-0.03090821	0.25110718
1157	11.56000000	-0.95421548	-0.07757779	0.07219881	-0.65533644	0.06791278	-0.69653517	-0.71948606	-0.54072645	-0.17620265	-0.71797370	-0.41173394	0.06572723	-0.15958137	0.80218247	0.14094855	-0.73688991	0.01696742	0.13895951	-0.66072706	-0.22966716	-0.36291653	-0.80855676	-0.02980413	0.22213424
1158	11.57000000	-0.95592849	-0.07146716	0.07424897	-0.65528215	0.06524824	-0.69816127	-0.71290894	-0.54123326	-0.17599469	-0.71372119	-0.41943173	0.07115774	-0.17856984	0.79950212	0.12843266	-0.73671187	0.00706047	0.14661047	-0.66267275	-0.22936681	-0.36531730	-0.81336907	-0.01953911	0.19756074
